<svg xmlns="http://www.w3.org/2000/svg" viewBox="0 0 480 384" width="480" height="384" preserveAspectRatio="xMidYMid meet" style="width: 100%; height: 100%; transform: translate3d(0px, 0px, 0px);"><defs><clipPath id="__lottie_element_2"><rect width="480" height="384" x="0" y="0"></rect></clipPath></defs><g clip-path="url(#__lottie_element_2)"><g style="display: block;" transform="matrix(1,0,0,1,8,0)" opacity="1"><g opacity="1" transform="matrix(1,0,0,1,248.43499755859375,258.5849914550781)"><path fill="rgb(68,60,63)" fill-opacity="1" d=" M40.68600082397461,0 C40.68600082397461,3.865999937057495 37.553001403808594,6.999000072479248 33.68600082397461,6.999000072479248 C33.68600082397461,6.999000072479248 -33.68600082397461,6.999000072479248 -33.68600082397461,6.999000072479248 C-37.553001403808594,6.999000072479248 -40.68600082397461,3.865999937057495 -40.68600082397461,0 C-40.68600082397461,-3.865999937057495 -37.553001403808594,-6.999000072479248 -33.68600082397461,-6.999000072479248 C-33.68600082397461,-6.999000072479248 33.68600082397461,-6.999000072479248 33.68600082397461,-6.999000072479248 C37.553001403808594,-6.999000072479248 40.68600082397461,-3.865999937057495 40.68600082397461,0z"></path></g><g opacity="1" transform="matrix(1,0,0,1,248.43499755859375,276.6260070800781)"><path fill="rgb(68,60,63)" fill-opacity="1" d=" M40.68600082397461,0.0010000000474974513 C40.68600082397461,3.865999937057495 37.553001403808594,6.999000072479248 33.68600082397461,6.999000072479248 C33.68600082397461,6.999000072479248 -33.68600082397461,6.999000072479248 -33.68600082397461,6.999000072479248 C-37.553001403808594,6.999000072479248 -40.68600082397461,3.865999937057495 -40.68600082397461,0.0010000000474974513 C-40.68600082397461,-3.865000009536743 -37.553001403808594,-6.999000072479248 -33.68600082397461,-6.999000072479248 C-33.68600082397461,-6.999000072479248 33.68600082397461,-6.999000072479248 33.68600082397461,-6.999000072479248 C37.553001403808594,-6.999000072479248 40.68600082397461,-3.865000009536743 40.68600082397461,0.0010000000474974513z"></path></g><g opacity="1" transform="matrix(1,0,0,1,248.43499755859375,298.93798828125)"><path fill="rgb(68,60,63)" fill-opacity="1" d=" M-25.493000030517578,-11.065999984741211 C-25.493000030517578,-11.065999984741211 -25.493000030517578,-7.034999847412109 -25.493000030517578,-7.034999847412109 C-25.493000030517578,2.9619998931884766 -17.388999938964844,11.065999984741211 -7.392000198364258,11.065999984741211 C-7.392000198364258,11.065999984741211 7.392000198364258,11.065999984741211 7.392000198364258,11.065999984741211 C17.388999938964844,11.065999984741211 25.493000030517578,2.9619998931884766 25.493000030517578,-7.034999847412109 C25.493000030517578,-7.034999847412109 25.493000030517578,-11.065999984741211 25.493000030517578,-11.065999984741211 C25.493000030517578,-11.065999984741211 -25.493000030517578,-11.065999984741211 -25.493000030517578,-11.065999984741211z"></path></g><g opacity="1" transform="matrix(0.748325765132904,-0.6633313894271851,0.6633313894271851,0.748325765132904,257.1969909667969,213.99000549316406)"><path fill="rgb(184,233,134)" fill-opacity="1" d=" M27.559999465942383,3.444000005722046 C27.559999465942383,3.444000005722046 27.559999465942383,-3.444999933242798 27.559999465942383,-3.444999933242798 C27.559999465942383,-3.444999933242798 22.10300064086914,-3.444999933242798 22.10300064086914,-3.444999933242798 C21.854000091552734,-5.050000190734863 21.444000244140625,-6.5980000495910645 20.871999740600586,-8.071000099182129 C20.871999740600586,-8.071000099182129 25.58799934387207,-10.79699993133545 25.58799934387207,-10.79699993133545 C25.58799934387207,-10.79699993133545 22.14299964904785,-16.763999938964844 22.14299964904785,-16.763999938964844 C22.14299964904785,-16.763999938964844 17.433000564575195,-14.043000221252441 17.433000564575195,-14.043000221252441 C16.423999786376953,-15.288000106811523 15.293999671936035,-16.424999237060547 14.041999816894531,-17.430999755859375 C14.041999816894531,-17.430999755859375 16.767000198364258,-22.143999099731445 16.767000198364258,-22.143999099731445 C16.767000198364258,-22.143999099731445 10.798999786376953,-25.589000701904297 10.798999786376953,-25.589000701904297 C10.798999786376953,-25.589000701904297 8.074000358581543,-20.868000030517578 8.074000358581543,-20.868000030517578 C6.60099983215332,-21.440000534057617 5.052999973297119,-21.854999542236328 3.444999933242798,-22.100000381469727 C3.444999933242798,-22.100000381469727 3.444999933242798,-27.559999465942383 3.444999933242798,-27.559999465942383 C3.444999933242798,-27.559999465942383 -3.444999933242798,-27.559999465942383 -3.444999933242798,-27.559999465942383 C-3.444999933242798,-27.559999465942383 -3.444999933242798,-22.100000381469727 -3.444999933242798,-22.100000381469727 C-5.046000003814697,-21.854999542236328 -6.593999862670898,-21.43600082397461 -8.067000389099121,-20.868000030517578 C-8.067000389099121,-20.868000030517578 -10.791999816894531,-25.589000701904297 -10.791999816894531,-25.589000701904297 C-10.791999816894531,-25.589000701904297 -16.760000228881836,-22.143999099731445 -16.760000228881836,-22.143999099731445 C-16.760000228881836,-22.143999099731445 -14.041999816894531,-17.430999755859375 -14.041999816894531,-17.430999755859375 C-15.286999702453613,-16.424999237060547 -16.423999786376953,-15.288000106811523 -17.427000045776367,-14.043000221252441 C-17.427000045776367,-14.043000221252441 -22.14299964904785,-16.763999938964844 -22.14299964904785,-16.763999938964844 C-22.14299964904785,-16.763999938964844 -25.58799934387207,-10.798999786376953 -25.58799934387207,-10.798999786376953 C-25.58799934387207,-10.798999786376953 -20.864999771118164,-8.071000099182129 -20.864999771118164,-8.071000099182129 C-21.437000274658203,-6.5980000495910645 -21.85099983215332,-5.050000190734863 -22.09600067138672,-3.444999933242798 C-22.09600067138672,-3.444999933242798 -27.559999465942383,-3.444999933242798 -27.559999465942383,-3.444999933242798 C-27.559999465942383,-3.444999933242798 -27.559999465942383,3.444000005722046 -27.559999465942383,3.444000005722046 C-27.559999465942383,3.444000005722046 -22.09600067138672,3.444000005722046 -22.09600067138672,3.444000005722046 C-21.85099983215332,5.048999786376953 -21.437000274658203,6.5960001945495605 -20.864999771118164,8.069999694824219 C-20.864999771118164,8.069999694824219 -25.58799934387207,10.795999526977539 -25.58799934387207,10.795999526977539 C-25.58799934387207,10.795999526977539 -22.14299964904785,16.763999938964844 -22.14299964904785,16.763999938964844 C-22.14299964904785,16.763999938964844 -17.427000045776367,14.041999816894531 -17.427000045776367,14.041999816894531 C-16.423999786376953,15.286999702453613 -15.286999702453613,16.42300033569336 -14.041999816894531,17.43000030517578 C-14.041999816894531,17.43000030517578 -16.760000228881836,22.14299964904785 -16.760000228881836,22.14299964904785 C-16.760000228881836,22.14299964904785 -10.791999816894531,25.589000701904297 -10.791999816894531,25.589000701904297 C-10.791999816894531,25.589000701904297 -8.067000389099121,20.867000579833984 -8.067000389099121,20.867000579833984 C-6.593999862670898,21.43899917602539 -5.046000003814697,21.850000381469727 -3.444000005722046,22.100000381469727 C-3.444000005722046,22.100000381469727 -3.444000005722046,27.55900001525879 -3.444000005722046,27.55900001525879 C-3.444000005722046,27.55900001525879 3.444999933242798,27.55900001525879 3.444999933242798,27.55900001525879 C3.444999933242798,27.55900001525879 3.444999933242798,22.100000381469727 3.444999933242798,22.100000381469727 C5.052999973297119,21.850000381469727 6.60099983215332,21.43899917602539 8.074999809265137,20.867000579833984 C8.074999809265137,20.867000579833984 10.798999786376953,25.589000701904297 10.798999786376953,25.589000701904297 C10.798999786376953,25.589000701904297 16.767000198364258,22.14299964904785 16.767000198364258,22.14299964904785 C16.767000198364258,22.14299964904785 14.041999816894531,17.43000030517578 14.041999816894531,17.43000030517578 C15.293999671936035,16.42300033569336 16.423999786376953,15.286999702453613 17.433000564575195,14.038999557495117 C17.433000564575195,14.038999557495117 22.143999099731445,16.76099967956543 22.143999099731445,16.76099967956543 C22.143999099731445,16.76099967956543 25.58799934387207,10.795999526977539 25.58799934387207,10.795999526977539 C25.58799934387207,10.795999526977539 20.871999740600586,8.069999694824219 20.871999740600586,8.069999694824219 C21.444000244140625,6.5960001945495605 21.854000091552734,5.048999786376953 22.10300064086914,3.444000005722046 C22.10300064086914,3.444000005722046 27.559999465942383,3.444000005722046 27.559999465942383,3.444000005722046z M0,15.501999855041504 C-8.557999610900879,15.501999855041504 -15.501999855041504,8.557999610900879 -15.501999855041504,-0.0010000000474974513 C-15.501999855041504,-8.562000274658203 -8.557999610900879,-15.503000259399414 0,-15.503000259399414 C8.559000015258789,-15.503000259399414 15.503000259399414,-8.562000274658203 15.503000259399414,-0.0010000000474974513 C15.503000259399414,8.557999610900879 8.559000015258789,15.501999855041504 0,15.501999855041504z"></path></g><g opacity="1" transform="matrix(0.797316312789917,0.6035616993904114,-0.6035616993904114,0.797316312789917,192.343994140625,125.03299713134766)"><path fill="rgb(65,117,5)" fill-opacity="1" d=" M-19.722999572753906,-14.989999771118164 C-20.47800064086914,-14 -21.152000427246094,-12.96399974822998 -21.736000061035156,-11.89799976348877 C-21.736000061035156,-11.89799976348877 -26.503000259399414,-13.442000389099121 -26.503000259399414,-13.442000389099121 C-26.503000259399414,-13.442000389099121 -27.399999618530273,-13.730999946594238 -27.399999618530273,-13.730999946594238 C-27.399999618530273,-13.730999946594238 -27.68899917602539,-12.836000442504883 -27.68899917602539,-12.836000442504883 C-27.68899917602539,-12.836000442504883 -29.95400047302246,-5.853000164031982 -29.95400047302246,-5.853000164031982 C-29.95400047302246,-5.853000164031982 -30.2450008392334,-4.955999851226807 -30.2450008392334,-4.955999851226807 C-30.2450008392334,-4.955999851226807 -29.347999572753906,-4.664999961853027 -29.347999572753906,-4.664999961853027 C-29.347999572753906,-4.664999961853027 -24.589000701904297,-3.125 -24.589000701904297,-3.125 C-24.743000030517578,-1.8890000581741333 -24.80699920654297,-0.652999997138977 -24.77899932861328,0.5669999718666077 C-24.77899932861328,0.5669999718666077 -29.676000595092773,1.6080000400543213 -29.676000595092773,1.6080000400543213 C-29.676000595092773,1.6080000400543213 -30.597999572753906,1.8040000200271606 -30.597999572753906,1.8040000200271606 C-30.597999572753906,1.8040000200271606 -30.399999618530273,2.7260000705718994 -30.399999618530273,2.7260000705718994 C-30.399999618530273,2.7260000705718994 -28.868000030517578,9.906000137329102 -28.868000030517578,9.906000137329102 C-28.868000030517578,9.906000137329102 -28.672000885009766,10.826000213623047 -28.672000885009766,10.826000213623047 C-28.672000885009766,10.826000213623047 -27.750999450683594,10.630000114440918 -27.750999450683594,10.630000114440918 C-27.750999450683594,10.630000114440918 -22.847999572753906,9.585000038146973 -22.847999572753906,9.585000038146973 C-22.374000549316406,10.71399974822998 -21.80900001525879,11.8149995803833 -21.160999298095703,12.871999740600586 C-21.160999298095703,12.871999740600586 -24.891000747680664,16.235000610351562 -24.891000747680664,16.235000610351562 C-24.891000747680664,16.235000610351562 -25.591999053955078,16.865999221801758 -25.591999053955078,16.865999221801758 C-25.591999053955078,16.865999221801758 -24.959999084472656,17.565000534057617 -24.959999084472656,17.565000534057617 C-24.959999084472656,17.565000534057617 -20.04599952697754,23.016000747680664 -20.04599952697754,23.016000747680664 C-20.04599952697754,23.016000747680664 -19.415000915527344,23.716999053955078 -19.415000915527344,23.716999053955078 C-19.415000915527344,23.716999053955078 -18.71500015258789,23.084999084472656 -18.71500015258789,23.084999084472656 C-18.71500015258789,23.084999084472656 -14.984000205993652,19.722999572753906 -14.984000205993652,19.722999572753906 C-14.006999969482422,20.468000411987305 -12.972999572753906,21.141000747680664 -11.894000053405762,21.732999801635742 C-11.894000053405762,21.732999801635742 -13.439000129699707,26.50200080871582 -13.439000129699707,26.50200080871582 C-13.439000129699707,26.50200080871582 -13.729999542236328,27.398000717163086 -13.729999542236328,27.398000717163086 C-13.729999542236328,27.398000717163086 -12.835000038146973,27.68899917602539 -12.835000038146973,27.68899917602539 C-12.835000038146973,27.68899917602539 -5.8520002365112305,29.952999114990234 -5.8520002365112305,29.952999114990234 C-5.8520002365112305,29.952999114990234 -4.955999851226807,30.243999481201172 -4.955999851226807,30.243999481201172 C-4.955999851226807,30.243999481201172 -4.664999961853027,29.347999572753906 -4.664999961853027,29.347999572753906 C-4.664999961853027,29.347999572753906 -3.119999885559082,24.58799934387207 -3.119999885559082,24.58799934387207 C-1.8949999809265137,24.742000579833984 -0.6589999794960022,24.805999755859375 0.5699999928474426,24.777000427246094 C0.5699999928474426,24.777000427246094 1.6150000095367432,29.676000595092773 1.6150000095367432,29.676000595092773 C1.6150000095367432,29.676000595092773 1.8109999895095825,30.59600067138672 1.8109999895095825,30.59600067138672 C1.8109999895095825,30.59600067138672 2.7309999465942383,30.400999069213867 2.7309999465942383,30.400999069213867 C2.7309999465942383,30.400999069213867 9.90999984741211,28.871000289916992 9.90999984741211,28.871000289916992 C9.90999984741211,28.871000289916992 10.831000328063965,28.674999237060547 10.831000328063965,28.674999237060547 C10.831000328063965,28.674999237060547 10.633000373840332,27.753000259399414 10.633000373840332,27.753000259399414 C10.633000373840332,27.753000259399414 9.58899974822998,22.844999313354492 9.58899974822998,22.844999313354492 C10.718000411987305,22.371000289916992 11.817999839782715,21.808000564575195 12.87399959564209,21.16200065612793 C12.87399959564209,21.16200065612793 16.238000869750977,24.893999099731445 16.238000869750977,24.893999099731445 C16.238000869750977,24.893999099731445 16.868999481201172,25.593000411987305 16.868999481201172,25.593000411987305 C16.868999481201172,25.593000411987305 17.56800079345703,24.961999893188477 17.56800079345703,24.961999893188477 C17.56800079345703,24.961999893188477 23.020000457763672,20.047000885009766 23.020000457763672,20.047000885009766 C23.020000457763672,20.047000885009766 23.7189998626709,19.41699981689453 23.7189998626709,19.41699981689453 C23.7189998626709,19.41699981689453 23.089000701904297,18.716999053955078 23.089000701904297,18.716999053955078 C23.089000701904297,18.716999053955078 19.725000381469727,14.984999656677246 19.725000381469727,14.984999656677246 C20.47599983215332,14.00100040435791 21.149999618530273,12.96500015258789 21.738000869750977,11.890999794006348 C21.738000869750977,11.890999794006348 26.507999420166016,13.439000129699707 26.507999420166016,13.439000129699707 C26.507999420166016,13.439000129699707 27.40399932861328,13.730999946594238 27.40399932861328,13.730999946594238 C27.40399932861328,13.730999946594238 27.69499969482422,12.833999633789062 27.69499969482422,12.833999633789062 C27.69499969482422,12.833999633789062 29.959999084472656,5.849999904632568 29.959999084472656,5.849999904632568 C29.959999084472656,5.849999904632568 30.250999450683594,4.953999996185303 30.250999450683594,4.953999996185303 C30.250999450683594,4.953999996185303 29.354000091552734,4.663000106811523 29.354000091552734,4.663000106811523 C29.354000091552734,4.663000106811523 24.59000015258789,3.11899995803833 24.59000015258789,3.11899995803833 C24.7450008392334,1.8990000486373901 24.809999465942383,0.6639999747276306 24.783000946044922,-0.5690000057220459 C24.783000946044922,-0.5690000057220459 29.67799949645996,-1.6150000095367432 29.67799949645996,-1.6150000095367432 C29.67799949645996,-1.6150000095367432 30.597999572753906,-1.812000036239624 30.597999572753906,-1.812000036239624 C30.597999572753906,-1.812000036239624 30.402000427246094,-2.7330000400543213 30.402000427246094,-2.7330000400543213 C30.402000427246094,-2.7330000400543213 28.8700008392334,-9.913000106811523 28.8700008392334,-9.913000106811523 C28.8700008392334,-9.913000106811523 28.67300033569336,-10.833999633789062 28.67300033569336,-10.833999633789062 C28.67300033569336,-10.833999633789062 27.753000259399414,-10.637999534606934 27.753000259399414,-10.637999534606934 C27.753000259399414,-10.637999534606934 22.847999572753906,-9.592000007629395 22.847999572753906,-9.592000007629395 C22.378000259399414,-10.711999893188477 21.815000534057617,-11.810999870300293 21.16699981689453,-12.873000144958496 C21.16699981689453,-12.873000144958496 24.895999908447266,-16.23699951171875 24.895999908447266,-16.23699951171875 C24.895999908447266,-16.23699951171875 25.59600067138672,-16.868000030517578 25.59600067138672,-16.868000030517578 C25.59600067138672,-16.868000030517578 24.96500015258789,-17.566999435424805 24.96500015258789,-17.566999435424805 C24.96500015258789,-17.566999435424805 20.049999237060547,-23.018999099731445 20.049999237060547,-23.018999099731445 C20.049999237060547,-23.018999099731445 19.41900062561035,-23.7189998626709 19.41900062561035,-23.7189998626709 C19.41900062561035,-23.7189998626709 18.7189998626709,-23.08799934387207 18.7189998626709,-23.08799934387207 C18.7189998626709,-23.08799934387207 14.989999771118164,-19.724000930786133 14.989999771118164,-19.724000930786133 C13.99899959564209,-20.481000900268555 12.961999893188477,-21.1560001373291 11.895000457763672,-21.740999221801758 C11.895000457763672,-21.740999221801758 13.440999984741211,-26.510000228881836 13.440999984741211,-26.510000228881836 C13.440999984741211,-26.510000228881836 13.729999542236328,-27.4060001373291 13.729999542236328,-27.4060001373291 C13.729999542236328,-27.4060001373291 12.835000038146973,-27.695999145507812 12.835000038146973,-27.695999145507812 C12.835000038146973,-27.695999145507812 5.8520002365112305,-29.961000442504883 5.8520002365112305,-29.961000442504883 C5.8520002365112305,-29.961000442504883 4.953999996185303,-30.25200080871582 4.953999996185303,-30.25200080871582 C4.953999996185303,-30.25200080871582 4.664999961853027,-29.354999542236328 4.664999961853027,-29.354999542236328 C4.664999961853027,-29.354999542236328 3.124000072479248,-24.591999053955078 3.124000072479248,-24.591999053955078 C1.9119999408721924,-24.7450008392334 0.6740000247955322,-24.80900001525879 -0.5699999928474426,-24.7810001373291 C-0.5699999928474426,-24.7810001373291 -1.6130000352859497,-29.674999237060547 -1.6130000352859497,-29.674999237060547 C-1.6130000352859497,-29.674999237060547 -1.8070000410079956,-30.59600067138672 -1.8070000410079956,-30.59600067138672 C-1.8070000410079956,-30.59600067138672 -2.7300000190734863,-30.399999618530273 -2.7300000190734863,-30.399999618530273 C-2.7300000190734863,-30.399999618530273 -9.906999588012695,-28.8700008392334 -9.906999588012695,-28.8700008392334 C-9.906999588012695,-28.8700008392334 -10.829000473022461,-28.673999786376953 -10.829000473022461,-28.673999786376953 C-10.829000473022461,-28.673999786376953 -10.631999969482422,-27.753000259399414 -10.631999969482422,-27.753000259399414 C-10.631999969482422,-27.753000259399414 -9.58899974822998,-22.85300064086914 -9.58899974822998,-22.85300064086914 C-10.710000038146973,-22.381999969482422 -11.809000015258789,-21.816999435424805 -12.871999740600586,-21.167999267578125 C-12.871999740600586,-21.167999267578125 -16.23200035095215,-24.895000457763672 -16.23200035095215,-24.895000457763672 C-16.23200035095215,-24.895000457763672 -16.863000869750977,-25.594999313354492 -16.863000869750977,-25.594999313354492 C-16.863000869750977,-25.594999313354492 -17.562999725341797,-24.964000701904297 -17.562999725341797,-24.964000701904297 C-17.562999725341797,-24.964000701904297 -23.013999938964844,-20.048999786376953 -23.013999938964844,-20.048999786376953 C-23.013999938964844,-20.048999786376953 -23.71500015258789,-19.417999267578125 -23.71500015258789,-19.417999267578125 C-23.71500015258789,-19.417999267578125 -23.08300018310547,-18.718000411987305 -23.08300018310547,-18.718000411987305 C-23.08300018310547,-18.718000411987305 -19.722999572753906,-14.989999771118164 -19.722999572753906,-14.989999771118164z M-6.669000148773193,-7.401000022888184 C-2.5889999866485596,-11.079999923706055 3.7230000495910645,-10.753000259399414 7.4019999504089355,-6.672999858856201 C11.081999778747559,-2.5920000076293945 10.755000114440918,3.7200000286102295 6.675000190734863,7.39900016784668 C2.5940001010894775,11.07800006866455 -3.7190001010894775,10.75100040435791 -7.3979997634887695,6.671000003814697 C-11.076000213623047,2.5910000801086426 -10.74899959564209,-3.7219998836517334 -6.669000148773193,-7.401000022888184z"></path></g><g opacity="1" transform="matrix(-0.6580928564071655,0.7529367804527283,-0.7529367804527283,-0.6580928564071655,245.0189971923828,160.27099609375)"><path fill="rgb(155,155,155)" fill-opacity="1" d=" M28.420000076293945,4.059000015258789 C28.420000076293945,4.059000015258789 28.420000076293945,-4.059999942779541 28.420000076293945,-4.059999942779541 C28.420000076293945,-4.059999942779541 19.892000198364258,-4.059999942779541 19.892000198364258,-4.059999942779541 C19.384000778198242,-6.550000190734863 18.41200065612793,-8.868000030517578 17.083999633789062,-10.932000160217285 C17.083999633789062,-10.932000160217285 23.17099952697754,-17.020000457763672 23.17099952697754,-17.020000457763672 C23.17099952697754,-17.020000457763672 17.424999237060547,-22.761999130249023 17.424999237060547,-22.761999130249023 C17.424999237060547,-22.761999130249023 11.430000305175781,-16.768999099731445 11.430000305175781,-16.768999099731445 C9.243000030517578,-18.264999389648438 6.748000144958496,-19.344999313354492 4.059999942779541,-19.889999389648438 C4.059999942779541,-19.889999389648438 4.059999942779541,-28.41900062561035 4.059999942779541,-28.41900062561035 C4.059999942779541,-28.41900062561035 -4.059999942779541,-28.41900062561035 -4.059999942779541,-28.41900062561035 C-4.059999942779541,-28.41900062561035 -4.059999942779541,-19.889999389648438 -4.059999942779541,-19.889999389648438 C-6.6519999504089355,-19.363000869750977 -9.0600004196167,-18.33799934387207 -11.1899995803833,-16.929000854492188 C-11.1899995803833,-16.929000854492188 -17.02400016784668,-22.761999130249023 -17.02400016784668,-22.761999130249023 C-17.02400016784668,-22.761999130249023 -22.766000747680664,-17.02199935913086 -22.766000747680664,-17.02199935913086 C-22.766000747680664,-17.02199935913086 -16.93199920654297,-11.1850004196167 -16.93199920654297,-11.1850004196167 C-18.341999053955078,-9.055000305175781 -19.365999221801758,-6.64900016784668 -19.892000198364258,-4.059999942779541 C-19.892000198364258,-4.059999942779541 -28.420000076293945,-4.059999942779541 -28.420000076293945,-4.059999942779541 C-28.420000076293945,-4.059999942779541 -28.420000076293945,4.060999870300293 -28.420000076293945,4.060999870300293 C-28.420000076293945,4.060999870300293 -19.889999389648438,4.060999870300293 -19.889999389648438,4.060999870300293 C-19.343000411987305,6.748000144958496 -18.263999938964844,9.243000030517578 -16.76799964904785,11.430999755859375 C-16.76799964904785,11.430999755859375 -22.763999938964844,17.426000595092773 -22.763999938964844,17.426000595092773 C-22.763999938964844,17.426000595092773 -17.018999099731445,23.170000076293945 -17.018999099731445,23.170000076293945 C-17.018999099731445,23.170000076293945 -10.934000015258789,17.08300018310547 -10.934000015258789,17.08300018310547 C-8.864999771118164,18.409000396728516 -6.548999786376953,19.384000778198242 -4.058000087738037,19.892000198364258 C-4.058000087738037,19.892000198364258 -4.058000087738037,28.420000076293945 -4.058000087738037,28.420000076293945 C-4.058000087738037,28.420000076293945 4.059999942779541,28.420000076293945 4.059999942779541,28.420000076293945 C4.059999942779541,28.420000076293945 4.059999942779541,19.892000198364258 4.059999942779541,19.892000198364258 C6.64900016784668,19.36400032043457 9.0600004196167,18.341999053955078 11.187999725341797,16.93000030517578 C11.187999725341797,16.93000030517578 17.42799949645996,23.170000076293945 17.42799949645996,23.170000076293945 C17.42799949645996,23.170000076293945 23.172000885009766,17.426000595092773 23.172000885009766,17.426000595092773 C23.172000885009766,17.426000595092773 16.93199920654297,11.185999870300293 16.93199920654297,11.185999870300293 C18.341999053955078,9.055999755859375 19.365999221801758,6.64900016784668 19.892000198364258,4.059000015258789 C19.892000198364258,4.059000015258789 28.420000076293945,4.059000015258789 28.420000076293945,4.059000015258789z M0,12.178000450134277 C-6.724999904632568,12.166999816894531 -12.168000221252441,6.7210001945495605 -12.180999755859375,0.0010000000474974513 C-12.166000366210938,-6.724999904632568 -6.724999904632568,-12.168000221252441 0,-12.180000305175781 C6.723999977111816,-12.168000221252441 12.166000366210938,-6.7270002365112305 12.178999900817871,0.0010000000474974513 C12.166000366210938,6.724999904632568 6.723999977111816,12.166999816894531 0,12.178000450134277z"></path></g><g opacity="1" transform="matrix(-0.07046453654766083,0.9975143074989319,-0.9975143074989319,-0.07046453654766083,198.43899536132812,188.6909942626953)"><path fill="rgb(90,165,7)" fill-opacity="1" d=" M28.420000076293945,4.059000015258789 C28.420000076293945,4.059000015258789 28.420000076293945,-4.060999870300293 28.420000076293945,-4.060999870300293 C28.420000076293945,-4.060999870300293 19.892000198364258,-4.060999870300293 19.892000198364258,-4.060999870300293 C19.384000778198242,-6.551000118255615 18.41200065612793,-8.868000030517578 17.083999633789062,-10.932999610900879 C17.083999633789062,-10.932999610900879 23.17099952697754,-17.020999908447266 23.17099952697754,-17.020999908447266 C23.17099952697754,-17.020999908447266 17.424999237060547,-22.761999130249023 17.424999237060547,-22.761999130249023 C17.424999237060547,-22.761999130249023 11.430000305175781,-16.770000457763672 11.430000305175781,-16.770000457763672 C9.243000030517578,-18.266000747680664 6.748000144958496,-19.34600067138672 4.059999942779541,-19.891000747680664 C4.059999942779541,-19.891000747680664 4.059999942779541,-28.420000076293945 4.059999942779541,-28.420000076293945 C4.059999942779541,-28.420000076293945 -4.059999942779541,-28.420000076293945 -4.059999942779541,-28.420000076293945 C-4.059999942779541,-28.420000076293945 -4.059999942779541,-19.891000747680664 -4.059999942779541,-19.891000747680664 C-6.6519999504089355,-19.36400032043457 -9.0600004196167,-18.339000701904297 -11.1899995803833,-16.93000030517578 C-11.1899995803833,-16.93000030517578 -17.02400016784668,-22.761999130249023 -17.02400016784668,-22.761999130249023 C-17.02400016784668,-22.761999130249023 -22.766000747680664,-17.023000717163086 -22.766000747680664,-17.023000717163086 C-22.766000747680664,-17.023000717163086 -16.93199920654297,-11.185999870300293 -16.93199920654297,-11.185999870300293 C-18.341999053955078,-9.055999755859375 -19.365999221801758,-6.650000095367432 -19.892000198364258,-4.060999870300293 C-19.892000198364258,-4.060999870300293 -28.420000076293945,-4.060999870300293 -28.420000076293945,-4.060999870300293 C-28.420000076293945,-4.060999870300293 -28.420000076293945,4.060999870300293 -28.420000076293945,4.060999870300293 C-28.420000076293945,4.060999870300293 -19.889999389648438,4.060999870300293 -19.889999389648438,4.060999870300293 C-19.343000411987305,6.748000144958496 -18.263999938964844,9.241999626159668 -16.76799964904785,11.430000305175781 C-16.76799964904785,11.430000305175781 -22.763999938964844,17.424999237060547 -22.763999938964844,17.424999237060547 C-22.763999938964844,17.424999237060547 -17.018999099731445,23.16900062561035 -17.018999099731445,23.16900062561035 C-17.018999099731445,23.16900062561035 -10.934000015258789,17.08300018310547 -10.934000015258789,17.08300018310547 C-8.864999771118164,18.409000396728516 -6.548999786376953,19.382999420166016 -4.058000087738037,19.891000747680664 C-4.058000087738037,19.891000747680664 -4.058000087738037,28.41900062561035 -4.058000087738037,28.41900062561035 C-4.058000087738037,28.41900062561035 4.059999942779541,28.41900062561035 4.059999942779541,28.41900062561035 C4.059999942779541,28.41900062561035 4.059999942779541,19.891000747680664 4.059999942779541,19.891000747680664 C6.64900016784668,19.363000869750977 9.0600004196167,18.341999053955078 11.187999725341797,16.93000030517578 C11.187999725341797,16.93000030517578 17.42799949645996,23.16900062561035 17.42799949645996,23.16900062561035 C17.42799949645996,23.16900062561035 23.172000885009766,17.424999237060547 23.172000885009766,17.424999237060547 C23.172000885009766,17.424999237060547 16.93199920654297,11.185999870300293 16.93199920654297,11.185999870300293 C18.341999053955078,9.055000305175781 19.365999221801758,6.64900016784668 19.892000198364258,4.059000015258789 C19.892000198364258,4.059000015258789 28.420000076293945,4.059000015258789 28.420000076293945,4.059000015258789z M0,12.177000045776367 C-6.724999904632568,12.166000366210938 -12.168000221252441,6.7210001945495605 -12.180999755859375,0.0010000000474974513 C-12.166000366210938,-6.724999904632568 -6.724999904632568,-12.168000221252441 0,-12.180000305175781 C6.723999977111816,-12.168000221252441 12.166000366210938,-6.7270002365112305 12.178999900817871,0.0010000000474974513 C12.166000366210938,6.724999904632568 6.723999977111816,12.166000366210938 0,12.177000045776367z"></path></g><g opacity="1" transform="matrix(-0.9992402791976929,-0.03897235170006752,0.03897235170006752,-0.9992402791976929,255.05999755859375,94.18099975585938)"><path fill="rgb(126,211,33)" fill-opacity="1" d=" M37.67100143432617,4.709000110626221 C37.67100143432617,4.709000110626221 37.67100143432617,-4.709000110626221 37.67100143432617,-4.709000110626221 C37.67100143432617,-4.709000110626221 30.211000442504883,-4.709000110626221 30.211000442504883,-4.709000110626221 C29.871000289916992,-6.9019999504089355 29.31100082397461,-9.017000198364258 28.52899932861328,-11.031000137329102 C28.52899932861328,-11.031000137329102 34.974998474121094,-14.755999565124512 34.974998474121094,-14.755999565124512 C34.974998474121094,-14.755999565124512 30.267000198364258,-22.913999557495117 30.267000198364258,-22.913999557495117 C30.267000198364258,-22.913999557495117 23.827999114990234,-19.194000244140625 23.827999114990234,-19.194000244140625 C22.448999404907227,-20.895000457763672 20.90399932861328,-22.450000762939453 19.194000244140625,-23.825000762939453 C19.194000244140625,-23.825000762939453 22.917999267578125,-30.267000198364258 22.917999267578125,-30.267000198364258 C22.917999267578125,-30.267000198364258 14.760000228881836,-34.97600173950195 14.760000228881836,-34.97600173950195 C14.760000228881836,-34.97600173950195 11.03499984741211,-28.52400016784668 11.03499984741211,-28.52400016784668 C9.020999908447266,-29.305999755859375 6.906000137329102,-29.871000289916992 4.708000183105469,-30.207000732421875 C4.708000183105469,-30.207000732421875 4.708000183105469,-37.67100143432617 4.708000183105469,-37.67100143432617 C4.708000183105469,-37.67100143432617 -4.710000038146973,-37.67100143432617 -4.710000038146973,-37.67100143432617 C-4.710000038146973,-37.67100143432617 -4.710000038146973,-30.207000732421875 -4.710000038146973,-30.207000732421875 C-6.89900016784668,-29.871000289916992 -9.012999534606934,-29.301000595092773 -11.027000427246094,-28.52400016784668 C-11.027000427246094,-28.52400016784668 -14.753000259399414,-34.974998474121094 -14.753000259399414,-34.974998474121094 C-14.753000259399414,-34.974998474121094 -22.90999984741211,-30.267000198364258 -22.90999984741211,-30.267000198364258 C-22.90999984741211,-30.267000198364258 -19.194000244140625,-23.823999404907227 -19.194000244140625,-23.823999404907227 C-20.895000457763672,-22.448999404907227 -22.450000762939453,-20.895000457763672 -23.81999969482422,-19.194000244140625 C-23.81999969482422,-19.194000244140625 -30.26799964904785,-22.913999557495117 -30.26799964904785,-22.913999557495117 C-30.26799964904785,-22.913999557495117 -34.97700119018555,-14.76099967956543 -34.97700119018555,-14.76099967956543 C-34.97700119018555,-14.76099967956543 -28.520000457763672,-11.031000137329102 -28.520000457763672,-11.031000137329102 C-29.301000595092773,-9.017000198364258 -29.867000579833984,-6.9019999504089355 -30.20199966430664,-4.709000110626221 C-30.20199966430664,-4.709000110626221 -37.66999816894531,-4.709000110626221 -37.66999816894531,-4.709000110626221 C-37.66999816894531,-4.709000110626221 -37.66999816894531,4.709000110626221 -37.66999816894531,4.709000110626221 C-37.66999816894531,4.709000110626221 -30.20199966430664,4.709000110626221 -30.20199966430664,4.709000110626221 C-29.867000579833984,6.9029998779296875 -29.301000595092773,9.017999649047852 -28.520000457763672,11.031999588012695 C-28.520000457763672,11.031999588012695 -34.97700119018555,14.756999969482422 -34.97700119018555,14.756999969482422 C-34.97700119018555,14.756999969482422 -30.26799964904785,22.915000915527344 -30.26799964904785,22.915000915527344 C-30.26799964904785,22.915000915527344 -23.81999969482422,19.19499969482422 -23.81999969482422,19.19499969482422 C-22.450000762939453,20.895999908447266 -20.895000457763672,22.450000762939453 -19.194000244140625,23.825000762939453 C-19.194000244140625,23.825000762939453 -22.90999984741211,30.267000198364258 -22.90999984741211,30.267000198364258 C-22.90999984741211,30.267000198364258 -14.753000259399414,34.97600173950195 -14.753000259399414,34.97600173950195 C-14.753000259399414,34.97600173950195 -11.027000427246094,28.52400016784668 -11.027000427246094,28.52400016784668 C-9.01200008392334,29.305999755859375 -6.8979997634887695,29.867000579833984 -4.710000038146973,30.20800018310547 C-4.710000038146973,30.20800018310547 -4.710000038146973,37.67100143432617 -4.710000038146973,37.67100143432617 C-4.710000038146973,37.67100143432617 4.708000183105469,37.67100143432617 4.708000183105469,37.67100143432617 C4.708000183105469,37.67100143432617 4.708000183105469,30.20800018310547 4.708000183105469,30.20800018310547 C6.906000137329102,29.867000579833984 9.020999908447266,29.305999755859375 11.03600025177002,28.52400016784668 C11.03600025177002,28.52400016784668 14.760000228881836,34.97600173950195 14.760000228881836,34.97600173950195 C14.760000228881836,34.97600173950195 22.917999267578125,30.267000198364258 22.917999267578125,30.267000198364258 C22.917999267578125,30.267000198364258 19.194000244140625,23.825000762939453 19.194000244140625,23.825000762939453 C20.905000686645508,22.450000762939453 22.448999404907227,20.895999908447266 23.827999114990234,19.190000534057617 C23.827999114990234,19.190000534057617 30.267000198364258,22.90999984741211 30.267000198364258,22.90999984741211 C30.267000198364258,22.90999984741211 34.974998474121094,14.756999969482422 34.974998474121094,14.756999969482422 C34.974998474121094,14.756999969482422 28.530000686645508,11.031999588012695 28.530000686645508,11.031999588012695 C29.31100082397461,9.017999649047852 29.871000289916992,6.9019999504089355 30.211000442504883,4.709000110626221 C30.211000442504883,4.709000110626221 37.67100143432617,4.709000110626221 37.67100143432617,4.709000110626221z M0,21.190000534057617 C-11.697999954223633,21.190000534057617 -21.190000534057617,11.699000358581543 -21.190000534057617,0 C-21.190000534057617,-11.70300006866455 -11.697999954223633,-21.190000534057617 0,-21.190000534057617 C11.699000358581543,-21.190000534057617 21.18899917602539,-11.70300006866455 21.18899917602539,0 C21.18899917602539,11.699000358581543 11.699000358581543,21.190000534057617 0,21.190000534057617z"></path></g><g opacity="1" transform="matrix(1,0,0,1,255.05999755859375,94.18099975585938)"><path fill="rgb(126,211,33)" fill-opacity="1" d=" M0,10.760000228881836 C-5.940000057220459,10.760000228881836 -10.760000228881836,5.940999984741211 -10.760000228881836,0.0010000000474974513 C-10.760000228881836,-5.941999912261963 -5.940000057220459,-10.760000228881836 0,-10.760000228881836 C5.940999984741211,-10.760000228881836 10.760000228881836,-5.941999912261963 10.760000228881836,0.0010000000474974513 C10.760000228881836,5.940999984741211 5.940999984741211,10.760000228881836 0,10.760000228881836z"></path></g><g opacity="1" transform="matrix(-0.8809630274772644,0.47318512201309204,-0.47318512201309204,-0.8809630274772644,305.08599853515625,148.09100341796875)"><path fill="rgb(49,136,119)" fill-opacity="1" d=" M32.3849983215332,2.197000026702881 C32.3849983215332,2.197000026702881 31.930999755859375,-5.8429999351501465 31.930999755859375,-5.8429999351501465 C31.930999755859375,-5.8429999351501465 25.562999725341797,-5.48199987411499 25.562999725341797,-5.48199987411499 C25.16699981689453,-7.336999893188477 24.583999633789062,-9.116000175476074 23.81999969482422,-10.79800033569336 C23.81999969482422,-10.79800033569336 29.14299964904785,-14.288999557495117 29.14299964904785,-14.288999557495117 C29.14299964904785,-14.288999557495117 24.72800064086914,-21.024999618530273 24.72800064086914,-21.024999618530273 C24.72800064086914,-21.024999618530273 19.413999557495117,-17.538000106811523 19.413999557495117,-17.538000106811523 C18.15399932861328,-18.923999786376953 16.757999420166016,-20.176000595092773 15.232000350952148,-21.267000198364258 C15.232000350952148,-21.267000198364258 18.100000381469727,-26.945999145507812 18.100000381469727,-26.945999145507812 C18.100000381469727,-26.945999145507812 10.909000396728516,-30.57200050354004 10.909000396728516,-30.57200050354004 C10.909000396728516,-30.57200050354004 8.041999816894531,-24.884000778198242 8.041999816894531,-24.884000778198242 C6.283999919891357,-25.452999114990234 4.451000213623047,-25.833999633789062 2.559000015258789,-26.013999938964844 C2.559000015258789,-26.013999938964844 2.197000026702881,-32.3849983215332 2.197000026702881,-32.3849983215332 C2.197000026702881,-32.3849983215332 -5.8420000076293945,-31.93000030517578 -5.8420000076293945,-31.93000030517578 C-5.8420000076293945,-31.93000030517578 -5.48199987411499,-25.558000564575195 -5.48199987411499,-25.558000564575195 C-7.334000110626221,-25.166000366210938 -9.111000061035156,-24.57699966430664 -10.793000221252441,-23.81599998474121 C-10.793000221252441,-23.81599998474121 -14.28499984741211,-29.14299964904785 -14.28499984741211,-29.14299964904785 C-14.28499984741211,-29.14299964904785 -21.02199935913086,-24.729000091552734 -21.02199935913086,-24.729000091552734 C-21.02199935913086,-24.729000091552734 -17.538999557495117,-19.40999984741211 -17.538999557495117,-19.40999984741211 C-18.923999786376953,-18.15399932861328 -20.176000595092773,-16.750999450683594 -21.26300048828125,-15.232000350952148 C-21.26300048828125,-15.232000350952148 -26.94700050354004,-18.094999313354492 -26.94700050354004,-18.094999313354492 C-26.94700050354004,-18.094999313354492 -30.57200050354004,-10.907999992370605 -30.57200050354004,-10.907999992370605 C-30.57200050354004,-10.907999992370605 -24.8799991607666,-8.036999702453613 -24.8799991607666,-8.036999702453613 C-25.450000762939453,-6.28000020980835 -25.82900047302246,-4.446000099182129 -26.010000228881836,-2.558000087738037 C-26.010000228881836,-2.558000087738037 -32.3849983215332,-2.196000099182129 -32.3849983215332,-2.196000099182129 C-32.3849983215332,-2.196000099182129 -31.93000030517578,5.8429999351501465 -31.93000030517578,5.8429999351501465 C-31.93000030517578,5.8429999351501465 -25.55500030517578,5.48199987411499 -25.55500030517578,5.48199987411499 C-25.163000106811523,7.3379998207092285 -24.576000213623047,9.116000175476074 -23.81100082397461,10.79800033569336 C-23.81100082397461,10.79800033569336 -29.14299964904785,14.289999961853027 -29.14299964904785,14.289999961853027 C-29.14299964904785,14.289999961853027 -24.729000091552734,21.025999069213867 -24.729000091552734,21.025999069213867 C-24.729000091552734,21.025999069213867 -19.405000686645508,17.538000106811523 -19.405000686645508,17.538000106811523 C-18.152000427246094,18.923999786376953 -16.750999450683594,20.176000595092773 -15.232999801635742,21.267000198364258 C-15.232999801635742,21.267000198364258 -18.090999603271484,26.94700050354004 -18.090999603271484,26.94700050354004 C-18.090999603271484,26.94700050354004 -10.899999618530273,30.570999145507812 -10.899999618530273,30.570999145507812 C-10.899999618530273,30.570999145507812 -8.032999992370605,24.884000778198242 -8.032999992370605,24.884000778198242 C-6.276000022888184,25.45400047302246 -4.441999912261963,25.829999923706055 -2.556999921798706,26.014999389648438 C-2.556999921798706,26.014999389648438 -2.197000026702881,32.38600158691406 -2.197000026702881,32.38600158691406 C-2.197000026702881,32.38600158691406 5.8420000076293945,31.93000030517578 5.8420000076293945,31.93000030517578 C5.8420000076293945,31.93000030517578 5.48199987411499,25.55900001525879 5.48199987411499,25.55900001525879 C7.3429999351501465,25.16200065612793 9.119999885559082,24.58099937438965 10.802000045776367,23.81599998474121 C10.802000045776367,23.81599998474121 14.293000221252441,29.14299964904785 14.293000221252441,29.14299964904785 C14.293000221252441,29.14299964904785 21.030000686645508,24.729000091552734 21.030000686645508,24.729000091552734 C21.030000686645508,24.729000091552734 17.538999557495117,19.409000396728516 17.538999557495117,19.409000396728516 C18.933000564575195,18.152999877929688 20.174999237060547,16.750999450683594 21.270999908447266,15.227999687194824 C21.270999908447266,15.227999687194824 26.947999954223633,18.091999053955078 26.947999954223633,18.091999053955078 C26.947999954223633,18.091999053955078 30.572999954223633,10.904999732971191 30.572999954223633,10.904999732971191 C30.572999954223633,10.904999732971191 24.88800048828125,8.036999702453613 24.88800048828125,8.036999702453613 C25.45800018310547,6.28000020980835 25.834999084472656,4.447000026702881 26.020000457763672,2.558000087738037 C26.020000457763672,2.558000087738037 32.3849983215332,2.197000026702881 32.3849983215332,2.197000026702881z M1.0260000228881836,18.089000701904297 C-8.960000038146973,18.655000686645508 -17.523000717163086,11.01200008392334 -18.089000701904297,1.0260000228881836 C-18.655000686645508,-8.96500015258789 -11.01200008392334,-17.52199935913086 -1.0260000228881836,-18.08799934387207 C8.961000442504883,-18.655000686645508 17.523000717163086,-11.015999794006348 18.09000015258789,-1.024999976158142 C18.6560001373291,8.961000442504883 11.012999534606934,17.523000717163086 1.0260000228881836,18.089000701904297z"></path></g><g opacity="1" transform="matrix(1,0,0,1,305.08599853515625,148.09100341796875)"><path fill="rgb(49,136,119)" fill-opacity="1" d=" M0.5210000276565552,9.1850004196167 C-4.550000190734863,9.472999572753906 -8.89799976348877,5.591000080108643 -9.1850004196167,0.5199999809265137 C-9.472999572753906,-4.552999973297119 -5.591000080108643,-8.89900016784668 -0.5199999809265137,-9.185999870300293 C4.551000118255615,-9.473999977111816 8.89900016784668,-5.59499979019165 9.187000274658203,-0.5210000276565552 C9.473999977111816,4.550000190734863 5.5920000076293945,8.897000312805176 0.5210000276565552,9.1850004196167z"></path></g></g></g></svg>