<svg xmlns="http://www.w3.org/2000/svg" viewBox="0 0 500 500" width="500" height="500" preserveAspectRatio="xMidYMid meet" style="width: 100%; height: 100%; transform: translate3d(0px, 0px, 0px);"><defs><clipPath id="__lottie_element_652"><rect width="500" height="500" x="0" y="0"></rect></clipPath><clipPath id="__lottie_element_654"><path d="M0,0 L500,0 L500,500 L0,500z"></path></clipPath><clipPath id="__lottie_element_655"><path fill="#ffffff" clip-rule="nonzero" d=" M506,-8 C506,-8 -8,-8 -8,-8 C-8,-8 -8,434 -8,434 C-8,434 506,434 506,434 C506,434 506,-8 506,-8" fill-opacity="1"></path></clipPath></defs><g clip-path="url(#__lottie_element_652)"><g transform="matrix(1,0,0,1,0,0)" opacity="1" style="display: block;"><rect width="500" height="500" fill="#ffffff"></rect></g><g transform="matrix(1.5,0,0,1.5,152.5,425.79150390625)" opacity="1" style="display: block;"><g opacity="1" transform="matrix(1,0,0,1,64.75,5.416999816894531)"><path fill="rgb(0,0,0)" fill-opacity="1" d=" M59.33300018310547,5.166999816894531 C59.33300018310547,5.166999816894531 -59.33399963378906,5.166999816894531 -59.33399963378906,5.166999816894531 C-62.1870002746582,5.166999816894531 -64.5,2.8529999256134033 -64.5,-0.0010000000474974513 C-64.5,-2.8550000190734863 -62.1870002746582,-5.166999816894531 -59.33399963378906,-5.166999816894531 C-59.33399963378906,-5.166999816894531 59.33300018310547,-5.166999816894531 59.33300018310547,-5.166999816894531 C62.1870002746582,-5.166999816894531 64.5,-2.8550000190734863 64.5,-0.0010000000474974513 C64.5,2.8529999256134033 62.1870002746582,5.166999816894531 59.33300018310547,5.166999816894531z"></path></g></g><g style="display: block;" transform="matrix(-0.21660000085830688,0,0,-0.21660000085830688,142.06460571289062,577.1500244140625)" opacity="1"><g opacity="1" transform="matrix(1,0,0,1,0,0)"><path stroke-linecap="round" stroke-linejoin="miter" fill-opacity="0" stroke-miterlimit="4" stroke="rgb(0,0,0)" stroke-opacity="1" stroke-width="50" d=" M-497.93701171875,1628.5279541015625 C-497.2860107421875,1410.2669677734375 -496.4700012207031,1133.7989501953125 -496.02801513671875,970.1270141601562"></path></g></g><g style="display: block;" transform="matrix(-0.21660000085830688,0,0,-0.21660000085830688,156.06460571289062,524.1500244140625)" opacity="1"><g opacity="1" transform="matrix(1,0,0,1,0,0)"><path stroke-linecap="round" stroke-linejoin="miter" fill-opacity="0" stroke-miterlimit="4" stroke="rgb(0,0,0)" stroke-opacity="1" stroke-width="50" d=" M-304.3420104980469,1222.56103515625 C-304.96600341796875,997.5449829101562 -305.781005859375,712.5430297851562 -306.3800048828125,544.1309814453125"></path></g></g><g style="display: block;" transform="matrix(-0.21660000085830688,0,0,-0.21660000085830688,121.0645980834961,475.1499938964844)" opacity="1"><g opacity="1" transform="matrix(1,0,0,1,0,0)"><path stroke-linecap="round" stroke-linejoin="miter" fill-opacity="0" stroke-miterlimit="4" stroke="rgb(0,0,0)" stroke-opacity="1" stroke-width="50" d=" M-724.22900390625,1018.3480224609375 C-723.552001953125,753.760009765625 -722.7020263671875,418.5840148925781 -722.2379760742188,219.74099731445312"></path></g></g><g clip-path="url(#__lottie_element_654)" transform="matrix(1,0,0,1,0,0)" opacity="1" style="display: block;"><g clip-path="url(#__lottie_element_655)"><g transform="matrix(1.5,0,0,1.5795695781707764,158.5,134.52117919921875)" opacity="1" style="display: block;"><g opacity="1" transform="matrix(1,0,0,1,60.75,60.75)"><path fill="rgb(126,211,33)" fill-opacity="1" d=" M53.25,0 C53.25,29.409000396728516 29.409000396728516,53.25 0,53.25 C-29.409000396728516,53.25 -53.25,29.409000396728516 -53.25,0 C-53.25,-29.409000396728516 -29.409000396728516,-53.25 0,-53.25 C29.409000396728516,-53.25 53.25,-29.409000396728516 53.25,0z"></path><path stroke-linecap="butt" stroke-linejoin="miter" fill-opacity="0" stroke-miterlimit="10" stroke="rgb(126,211,33)" stroke-opacity="1" stroke-width="3" d=" M53.25,0 C53.25,29.409000396728516 29.409000396728516,53.25 0,53.25 C-29.409000396728516,53.25 -53.25,29.409000396728516 -53.25,0 C-53.25,-29.409000396728516 -29.409000396728516,-53.25 0,-53.25 C29.409000396728516,-53.25 53.25,-29.409000396728516 53.25,0z"></path></g><g opacity="1" transform="matrix(1,0,0,1,60.92900085449219,60.75)"><path fill="rgb(255,255,255)" fill-opacity="1" d=" M1.9700000286102295,-26.687000274658203 C4.625,-26.638999938964844 7.302999973297119,-26.19099998474121 10.008000373840332,-25.347999572753906 C10.883999824523926,-25.073999404907227 11.720999717712402,-24.7549991607666 12.520999908447266,-24.39299964904785 C14.987000465393066,-23.275999069213867 15.562999725341797,-20.020000457763672 13.682999610900879,-18.06999969482422 C12.385000228881836,-16.722999572753906 10.343999862670898,-16.511999130249023 8.73900032043457,-17.475000381469727 C8.199000358581543,-17.798999786376953 7.619999885559082,-18.08099937438965 7.004000186920166,-18.32200050354004 C5.3379998207092285,-18.975000381469727 3.6589999198913574,-19.299999237060547 1.9700000286102295,-19.299999237060547 C1.9700000286102295,-19.299999237060547 1.9700000286102295,-4.671000003814697 1.9700000286102295,-4.671000003814697 C3.803999900817871,-4.0920000076293945 5.638999938964844,-3.4149999618530273 7.473999977111816,-2.6440000534057617 C9.307999610900879,-1.8700000047683716 10.961999893188477,-0.8930000066757202 12.4350004196167,0.28999999165534973 C13.907999992370605,1.4739999771118164 15.10200023651123,2.9089999198913574 16.020000457763672,4.598999977111816 C16.93600082397461,6.289000034332275 17.395999908447266,8.36400032043457 17.395999908447266,10.82699966430664 C17.395999908447266,13.338000297546387 16.972999572753906,15.54699993133545 16.128999710083008,17.452999114990234 C15.282999992370605,19.361000061035156 14.14799976348877,20.954999923706055 12.725000381469727,22.232999801635742 C11.300000190734863,23.51300048828125 9.656999588012695,24.490999221801758 7.798999786376953,25.166000366210938 C5.940000057220459,25.841999053955078 3.997999906539917,26.20400047302246 1.9700000286102295,26.253000259399414 C1.9700000286102295,26.253000259399414 1.9700000286102295,29.511999130249023 1.9700000286102295,29.511999130249023 C1.9700000286102295,30.591999053955078 1.0950000286102295,31.466999053955078 0.014999999664723873,31.466999053955078 C0.014999999664723873,31.466999053955078 0.014000000432133675,31.466999053955078 0.014000000432133675,31.466999053955078 C-1.065000057220459,31.466999053955078 -1.9420000314712524,30.591999053955078 -1.9420000314712524,29.511999130249023 C-1.9420000314712524,29.511999130249023 -1.9420000314712524,26.253000259399414 -1.9420000314712524,26.253000259399414 C-5.127999782562256,26.155000686645508 -8.182000160217285,25.56399917602539 -11.102999687194824,24.479000091552734 C-12.380999565124512,24.003000259399414 -13.600000381469727,23.420000076293945 -14.76200008392334,22.72800064086914 C-17.110000610351562,21.32900047302246 -17.395000457763672,18.02400016784668 -15.418999671936035,16.13800048828125 C-13.956999778747559,14.743000030517578 -11.706000328063965,14.57699966430664 -10.076000213623047,15.772000312805176 C-9.336999893188477,16.31399917602539 -8.532999992370605,16.802000045776367 -7.663000106811523,17.236000061035156 C-5.684000015258789,18.226999282836914 -3.7769999504089355,18.746000289916992 -1.9420000314712524,18.792999267578125 C-1.9420000314712524,18.792999267578125 -1.9420000314712524,2.7160000801086426 -1.9420000314712524,2.7160000801086426 C-4.066999912261963,2.13700008392334 -6.046000003814697,1.4739999771118164 -7.880000114440918,0.7250000238418579 C-9.715999603271484,-0.023000000044703484 -11.319999694824219,-0.9779999852180481 -12.696000099182129,-2.13700008392334 C-14.071999549865723,-3.2950000762939453 -15.147000312805176,-4.683000087738037 -15.918999671936035,-6.301000118255615 C-16.691999435424805,-7.918000221252441 -17.07699966430664,-9.88599967956543 -17.07699966430664,-12.20300006866455 C-17.07699966430664,-14.37600040435791 -16.655000686645508,-16.31800079345703 -15.809000015258789,-18.033000946044922 C-14.96500015258789,-19.746000289916992 -13.831000328063965,-21.207000732421875 -12.406000137329102,-22.413999557495117 C-10.982999801635742,-23.6200008392334 -9.36400032043457,-24.573999404907227 -7.552999973297119,-25.274999618530273 C-5.743000030517578,-25.975000381469727 -3.872999906539917,-26.39699935913086 -1.9420000314712524,-26.54199981689453 C-1.9420000314712524,-26.54199981689453 -1.9420000314712524,-29.511999130249023 -1.9420000314712524,-29.511999130249023 C-1.9420000314712524,-30.591999053955078 -1.065000057220459,-31.466999053955078 0.014000000432133675,-31.466999053955078 C0.014000000432133675,-31.466999053955078 0.014999999664723873,-31.466999053955078 0.014999999664723873,-31.466999053955078 C1.0950000286102295,-31.466999053955078 1.9700000286102295,-30.591999053955078 1.9700000286102295,-29.511999130249023 C1.9700000286102295,-29.511999130249023 1.9700000286102295,-26.687000274658203 1.9700000286102295,-26.687000274658203z M-1.9420000314712524,-19.299999237060547 C-3.631999969482422,-19.106000900268555 -5.127999782562256,-18.47800064086914 -6.432000160217285,-17.41699981689453 C-7.735000133514404,-16.354000091552734 -8.38700008392334,-14.76200008392334 -8.38700008392334,-12.637999534606934 C-8.38700008392334,-10.609000205993652 -7.771999835968018,-9.076000213623047 -6.539999961853027,-8.038999557495117 C-5.309000015258789,-7 -3.7769999504089355,-6.216000080108643 -1.9420000314712524,-5.684999942779541 C-1.9420000314712524,-5.684999942779541 -1.9420000314712524,-19.299999237060547 -1.9420000314712524,-19.299999237060547z M1.9700000286102295,18.792999267578125 C3.997999906539917,18.69700050354004 5.626999855041504,17.972999572753906 6.859000205993652,16.621000289916992 C8.09000015258789,15.270000457763672 8.704000473022461,13.506999969482422 8.704000473022461,11.333999633789062 C8.704000473022461,9.210000038146973 8.0649995803833,7.605000019073486 6.785999774932861,6.519000053405762 C5.506999969482422,5.432000160217285 3.9010000228881836,4.552000045776367 1.9700000286102295,3.875 C1.9700000286102295,3.875 1.9700000286102295,18.792999267578125 1.9700000286102295,18.792999267578125z"></path></g><g opacity="1" transform="matrix(1,0,0,1,61.0629997253418,13.416999816894531)"><path fill="rgb(255,255,255)" fill-opacity="1" d=" M2.812999963760376,0 C2.812999963760376,1.5529999732971191 1.5529999732971191,2.812999963760376 -0.0010000000474974513,2.812999963760376 C-1.5540000200271606,2.812999963760376 -2.812999963760376,1.5529999732971191 -2.812999963760376,0 C-2.812999963760376,-1.5529999732971191 -1.5540000200271606,-2.812999963760376 -0.0010000000474974513,-2.812999963760376 C1.5529999732971191,-2.812999963760376 2.812999963760376,-1.5529999732971191 2.812999963760376,0z"></path></g><g opacity="1" transform="matrix(1,0,0,1,30.937999725341797,38.108001708984375)"><path stroke-linecap="round" stroke-linejoin="miter" fill-opacity="0" stroke-miterlimit="10" stroke="rgb(255,255,255)" stroke-opacity="1" stroke-width="5" d=" M-17.187999725341797,22.64299964904785 C-17.187999725341797,1.059000015258789 -2.638000011444092,-17.128000259399414 17.187999725341797,-22.64299964904785"></path></g><g opacity="1" transform="matrix(1,0,0,1,61.0629997253418,108.08300018310547)"><path fill="rgb(255,255,255)" fill-opacity="1" d=" M-2.812999963760376,0 C-2.812999963760376,-1.5529999732971191 -1.5540000200271606,-2.812999963760376 0,-2.812999963760376 C1.5529999732971191,-2.812999963760376 2.812999963760376,-1.5529999732971191 2.812999963760376,0 C2.812999963760376,1.5540000200271606 1.5529999732971191,2.812999963760376 0,2.812999963760376 C-1.5540000200271606,2.812999963760376 -2.812999963760376,1.5540000200271606 -2.812999963760376,0z"></path></g><g opacity="1" transform="matrix(1,0,0,1,91.18800354003906,83.39299774169922)"><path stroke-linecap="round" stroke-linejoin="miter" fill-opacity="0" stroke-miterlimit="10" stroke="rgb(255,255,255)" stroke-opacity="1" stroke-width="5" d=" M17.187999725341797,-22.64299964904785 C17.187999725341797,-1.059000015258789 2.63700008392334,17.128000259399414 -17.187999725341797,22.64299964904785"></path></g></g></g></g></g></svg>