<svg xmlns="http://www.w3.org/2000/svg" viewBox="0 0 350 350" width="350" height="350" preserveAspectRatio="xMidYMid meet" style="width: 100%; height: 100%; transform: translate3d(0px, 0px, 0px);"><defs><clipPath id="__lottie_element_644"><rect width="350" height="350" x="0" y="0"></rect></clipPath></defs><g clip-path="url(#__lottie_element_644)"><g transform="matrix(1.4998005628585815,0.02445618063211441,-0.02445618063211441,1.4998005628585815,-80.56678771972656,-198.96649169921875)" opacity="1" style="display: block;"><g opacity="1" transform="matrix(0.1348000019788742,0,0,0.1348000019788742,174.40699768066406,174.5)"><path fill="rgb(3,0,0)" fill-opacity="1" d=" M-6.090000152587891,90.41600036621094 C-6.090000152587891,90.41600036621094 21.34600067138672,54.25 21.34600067138672,54.25 C21.34600067138672,54.25 48.78499984741211,18.076000213623047 48.78499984741211,18.076000213623047 C48.78499984741211,18.076000213623047 67.35600280761719,18.08300018310547 67.35600280761719,18.08300018310547 C78.48100280761719,18.08300018310547 89.42500305175781,16.159000396728516 99.94599914550781,12.347999572753906 C105.19400024414062,10.444999694824219 108.58599853515625,5.61299991607666 108.59300231933594,0.032999999821186066 C108.59300231933594,-5.554999828338623 105.21099853515625,-10.390999794006348 99.9749984741211,-12.300000190734863 C89.46099853515625,-16.13800048828125 78.4530029296875,-18.08300018310547 67.25199890136719,-18.08300018310547 C67.25199890136719,-18.08300018310547 48.77799987792969,-18.09000015258789 48.77799987792969,-18.09000015258789 C48.77799987792969,-18.09000015258789 21.34600067138672,-54.25 21.34600067138672,-54.25 C21.34600067138672,-54.25 10.944000244140625,-68.71600341796875 10.944000244140625,-68.71600341796875 C10.944000244140625,-68.71600341796875 -6.090000152587891,-90.41699981689453 -6.090000152587891,-90.41699981689453 C-6.090000152587891,-90.41699981689453 -18.724000930786133,-107.07099914550781 -18.724000930786133,-107.07099914550781 C-19.410999298095703,-107.97200012207031 -20.474000930786133,-108.5 -21.606000900268555,-108.5 C-21.606000900268555,-108.5 -43.305999755859375,-108.5 -43.305999755859375,-108.5 C-44.4739990234375,-108.5 -45.57400131225586,-107.93599700927734 -46.25,-106.98400115966797 C-46.69499969482422,-106.36199951171875 -46.92300033569336,-105.62799835205078 -46.92300033569336,-104.88300323486328 C-46.92300033569336,-104.48899841308594 -46.858001708984375,-104.08699798583984 -46.7239990234375,-103.7040023803711 C-46.7239990234375,-103.7040023803711 -17.211999893188477,-18.11199951171875 -17.211999893188477,-18.11199951171875 C-17.211999893188477,-18.11199951171875 -68.64099884033203,-15.053000450134277 -68.64099884033203,-15.053000450134277 C-68.64099884033203,-15.053000450134277 -90.7509994506836,-44.79199981689453 -90.7509994506836,-44.79199981689453 C-91.31199645996094,-46.13800048828125 -92.63200378417969,-47.016998291015625 -94.08999633789062,-47.016998291015625 C-94.08999633789062,-47.016998291015625 -104.78800201416016,-47.016998291015625 -104.78800201416016,-47.016998291015625 C-105.99600219726562,-47.016998291015625 -107.1259994506836,-46.41299819946289 -107.79900360107422,-45.40700149536133 C-108.4749984741211,-44.39799880981445 -108.59400177001953,-43.125 -108.12799835205078,-42.00699996948242 C-108.12799835205078,-42.00699996948242 -94.46199798583984,-5.211999893188477 -94.46199798583984,-5.211999893188477 C-94.46199798583984,-5.211999893188477 -97.40799713134766,0.5 -97.40799713134766,0.5 C-97.40799713134766,0.5 -94.40799713134766,6.5 -94.40799713134766,6.5 C-94.40799713134766,6.5 -108.12799835205078,42.007999420166016 -108.12799835205078,42.007999420166016 C-108.31600189208984,42.45600128173828 -108.40599822998047,42.93000030517578 -108.40599822998047,43.39899826049805 C-108.40599822998047,44.10200119018555 -108.19999694824219,44.803001403808594 -107.79900360107422,45.40700149536133 C-107.1259994506836,46.4119987487793 -105.99600219726562,47.016998291015625 -104.78800201416016,47.016998291015625 C-104.78800201416016,47.016998291015625 -94.08999633789062,47.016998291015625 -94.08999633789062,47.016998291015625 C-92.63200378417969,47.016998291015625 -91.31199645996094,46.13800048828125 -90.7509994506836,44.79199981689453 C-90.7509994506836,44.79199981689453 -68.64099884033203,15.395999908447266 -68.64099884033203,15.395999908447266 C-68.64099884033203,15.395999908447266 -17.190000534057617,18.05500030517578 -17.190000534057617,18.05500030517578 C-17.190000534057617,18.05500030517578 -46.7239990234375,103.7040023803711 -46.7239990234375,103.7040023803711 C-46.858001708984375,104.08699798583984 -46.92300033569336,104.48799896240234 -46.92300033569336,104.88300323486328 C-46.92300033569336,105.6240005493164 -46.69499969482422,106.36199951171875 -46.25,106.9800033569336 C-45.57400131225586,107.93599700927734 -44.4739990234375,108.5 -43.305999755859375,108.5 C-43.305999755859375,108.5 -21.606000900268555,108.5 -21.606000900268555,108.5 C-20.474000930786133,108.5 -19.410999298095703,107.97200012207031 -18.724000930786133,107.06700134277344 C-18.724000930786133,107.06700134277344 -6.090000152587891,90.41600036621094 -6.090000152587891,90.41600036621094z"></path></g></g><g transform="matrix(2.3499999046325684,0,0,2.3499999046325684,104.5,104.5)" opacity="1" style="display: block;"><g opacity="1" transform="matrix(1,0,0,1,30,30)"><path fill="rgb(126,211,33)" fill-opacity="1" d=" M30,0 C30,-2.697999954223633 29.63599967956543,-5.311999797821045 28.96500015258789,-7.800000190734863 C28.96500015258789,-7.800000190734863 28.965999603271484,-7.808000087738037 28.965999603271484,-7.808000087738037 C28.965999603271484,-7.808000087738037 28.9060001373291,-8.027000427246094 28.9060001373291,-8.027000427246094 C28.89299964904785,-8.072999954223633 28.875999450683594,-8.114999771118164 28.86400032043457,-8.159000396728516 C28.649999618530273,-8.914999961853027 28.413000106811523,-9.66100025177002 28.142000198364258,-10.392000198364258 C28.134000778198242,-10.413000106811523 28.125,-10.432999610900879 28.118999481201172,-10.454000473022461 C27.86400032043457,-11.13599967956543 27.579999923706055,-11.803999900817871 27.27899932861328,-12.461000442504883 C27.22599983215332,-12.576000213623047 27.177000045776367,-12.690999984741211 27.12299919128418,-12.805000305175781 C26.827999114990234,-13.430000305175781 26.506999969482422,-14.041999816894531 26.170000076293945,-14.642000198364258 C26.083999633789062,-14.793999671936035 25.996000289916992,-14.946000099182129 25.908000946044922,-15.097999572753906 C25.562000274658203,-15.687999725341797 25.202999114990234,-16.26799964904785 24.820999145507812,-16.83099937438965 C24.750999450683594,-16.93199920654297 24.67799949645996,-17.027999877929688 24.608999252319336,-17.128000259399414 C24.243000030517578,-17.652000427246094 23.861000061035156,-18.163999557495117 23.46299934387207,-18.663000106811523 C23.389999389648438,-18.753000259399414 23.320999145507812,-18.847999572753906 23.246000289916992,-18.937999725341797 C22.79599952697754,-19.489999771118164 22.323999404907227,-20.02199935913086 21.834999084472656,-20.540000915527344 C21.760000228881836,-20.621000289916992 21.68400001525879,-20.700000762939453 21.607999801635742,-20.77899932861328 C17.249000549316406,-25.30900001525879 11.489999771118164,-28.474000930786133 5.031000137329102,-29.569000244140625 C4.988999843597412,-29.57699966430664 4.947999954223633,-29.584999084472656 4.906000137329102,-29.590999603271484 C4.1620001792907715,-29.714000701904297 3.4110000133514404,-29.80900001525879 2.6510000228881836,-29.875999450683594 C2.5280001163482666,-29.886999130249023 2.4049999713897705,-29.895000457763672 2.2809998989105225,-29.902999877929688 C1.527999997138977,-29.959999084472656 0.7680000066757202,-30 0,-30 C-0.515999972820282,-30 -1.027999997138977,-29.986000061035156 -1.5410000085830688,-29.959999084472656 C-1.5470000505447388,-29.959999084472656 -1.555999994277954,-29.959999084472656 -1.562999963760376,-29.958999633789062 C-5.084000110626221,-29.777999877929688 -8.501999855041504,-28.993000030517578 -11.746000289916992,-27.610000610351562 C-11.746000289916992,-27.610000610351562 -12.25,-27.395999908447266 -12.25,-27.395999908447266 C-12.25,-27.395999908447266 -12.253000259399414,-27.37299919128418 -12.253000259399414,-27.37299919128418 C-22.70199966430664,-22.676000595092773 -30,-12.178000450134277 -30,0 C-30,6.821000099182129 -27.70800018310547,13.11299991607666 -23.860000610351562,18.156999588012695 C-23.860000610351562,18.156999588012695 -23.854000091552734,18.18400001525879 -23.854000091552734,18.18400001525879 C-23.854000091552734,18.18400001525879 -23.716999053955078,18.360000610351562 -23.716999053955078,18.360000610351562 C-23.576000213623047,18.542999267578125 -23.42300033569336,18.718000411987305 -23.275999069213867,18.89900016784668 C-23.198999404907227,18.996000289916992 -23.121000289916992,19.091999053955078 -23.041000366210938,19.187000274658203 C-22.937999725341797,19.31100082397461 -22.839000701904297,19.440000534057617 -22.733999252319336,19.56100082397461 C-22.733999252319336,19.56100082397461 -22.59600067138672,19.722999572753906 -22.59600067138672,19.722999572753906 C-22.59600067138672,19.722999572753906 -22.56399917602539,19.738000869750977 -22.56399917602539,19.738000869750977 C-19.47800064086914,23.26099967956543 -15.583999633789062,26.055999755859375 -11.17199993133545,27.833999633789062 C-11.17199993133545,27.833999633789062 -11.170000076293945,27.85099983215332 -11.170000076293945,27.85099983215332 C-11.170000076293945,27.85099983215332 -10.619999885559082,28.059999465942383 -10.619999885559082,28.059999465942383 C-10.560999870300293,28.082000732421875 -10.50100040435791,28.10099983215332 -10.442000389099121,28.12299919128418 C-10.258999824523926,28.19099998474121 -10.076000213623047,28.25200080871582 -9.892999649047852,28.316999435424805 C-9.63599967956543,28.406999588012695 -9.378999710083008,28.496000289916992 -9.119999885559082,28.57900047302246 C-8.914999961853027,28.643999099731445 -8.708000183105469,28.70599937438965 -8.5,28.766000747680664 C-8.253999710083008,28.839000701904297 -8.006999969482422,28.910999298095703 -7.761000156402588,28.97599983215332 C-7.548999786376953,29.034000396728516 -7.336999893188477,29.086000442504883 -7.124000072479248,29.13800048828125 C-6.872000217437744,29.201000213623047 -6.61899995803833,29.259000778198242 -6.366000175476074,29.315000534057617 C-6.1570000648498535,29.360000610351562 -5.947999954223633,29.402999877929688 -5.736999988555908,29.444000244140625 C-5.4720001220703125,29.496000289916992 -5.204999923706055,29.54199981689453 -4.936999797821045,29.586999893188477 C-4.735000133514404,29.621000289916992 -4.533999919891357,29.655000686645508 -4.330999851226807,29.683000564575195 C-4.046999931335449,29.725000381469727 -3.760999917984009,29.759000778198242 -3.4739999771118164,29.79199981689453 C-3.2839999198913574,29.815000534057617 -3.0950000286102295,29.839000701904297 -2.9030001163482666,29.857999801635742 C-2.5829999446868896,29.88800048828125 -2.260999917984009,29.910999298095703 -1.937999963760376,29.930999755859375 C-1.777999997138977,29.941999435424805 -1.6200000047683716,29.95599937438965 -1.4600000381469727,29.96299934387207 C-0.9739999771118164,29.98699951171875 -0.4869999885559082,30 0,30 C0.5849999785423279,30 1.1640000343322754,29.979000091552734 1.7410000562667847,29.94700050354004 C1.9210000038146973,29.934999465942383 2.0999999046325684,29.917999267578125 2.2820000648498535,29.905000686645508 C2.680999994277954,29.874000549316406 3.0789999961853027,29.83799934387207 3.4739999771118164,29.792999267578125 C3.684999942779541,29.76799964904785 3.8970000743865967,29.742000579833984 4.10699987411499,29.711999893188477 C4.4730000495910645,29.66200065612793 4.8379998207092285,29.60300064086914 5.202000141143799,29.540000915527344 C5.416999816894531,29.50200080871582 5.632999897003174,29.465999603271484 5.8480000495910645,29.423999786376953 C6.243000030517578,29.344999313354492 6.631999969482422,29.256000518798828 7.021999835968018,29.163000106811523 C7.171000003814697,29.125999450683594 7.323999881744385,29.100000381469727 7.4720001220703125,29.062000274658203 C7.4720001220703125,29.062000274658203 8.102999687194824,28.900999069213867 8.102999687194824,28.900999069213867 C8.102999687194824,28.900999069213867 8.107999801635742,28.878000259399414 8.107999801635742,28.878000259399414 C20.72100067138672,25.332000732421875 30,13.734000205993652 30,0z M8.473999977111816,26.68600082397461 C8.473999977111816,26.68600082397461 8.90999984741211,24.086000442504883 8.90999984741211,24.086000442504883 C8.90999984741211,24.086000442504883 12.305999755859375,21.329999923706055 12.305999755859375,21.329999923706055 C12.305999755859375,21.329999923706055 14.25,15.265999794006348 14.25,15.265999794006348 C14.25,15.265999794006348 6.25,15.232999801635742 6.25,15.232999801635742 C6.25,15.232999801635742 4.690999984741211,12.41100025177002 4.690999984741211,12.41100025177002 C4.690999984741211,12.41100025177002 -1.1130000352859497,8.062000274658203 -1.1130000352859497,8.062000274658203 C-1.1130000352859497,8.062000274658203 -4.880000114440918,8.208999633789062 -4.880000114440918,8.208999633789062 C-4.880000114440918,8.208999633789062 -8.289999961853027,7.136000156402588 -8.289999961853027,7.136000156402588 C-8.289999961853027,7.136000156402588 -10.107000350952148,5.882999897003174 -10.107000350952148,5.882999897003174 C-10.107000350952148,5.882999897003174 -9.593999862670898,5.711999893188477 -9.593999862670898,5.711999893188477 C-9.593999862670898,5.711999893188477 -10.53600025177002,5.586999893188477 -10.53600025177002,5.586999893188477 C-10.53600025177002,5.586999893188477 -11.4399995803833,4.964000225067139 -11.4399995803833,4.964000225067139 C-11.4399995803833,4.964000225067139 -12.821000099182129,5.283999919891357 -12.821000099182129,5.283999919891357 C-12.821000099182129,5.283999919891357 -15.189000129699707,4.968999862670898 -15.189000129699707,4.968999862670898 C-15.189000129699707,4.968999862670898 -18.472999572753906,6.560999870300293 -18.472999572753906,6.560999870300293 C-18.472999572753906,6.560999870300293 -18.790000915527344,6.665999889373779 -18.790000915527344,6.665999889373779 C-18.790000915527344,6.665999889373779 -18.77199935913086,6.730999946594238 -18.77199935913086,6.730999946594238 C-18.77199935913086,6.730999946594238 -21.62700080871582,8.08899974822998 -21.62700080871582,8.08899974822998 C-21.62700080871582,8.08899974822998 -24.985000610351562,12.61400032043457 -24.985000610351562,12.61400032043457 C-26.167999267578125,10.281999588012695 -27.031999588012695,7.763999938964844 -27.523000717163086,5.116000175476074 C-27.20599937438965,4.824999809265137 -26.895999908447266,4.577000141143799 -26.573999404907227,4.333000183105469 C-25.767000198364258,3.7239999771118164 -24.933000564575195,3.0940001010894775 -24.124000549316406,1.6390000581741333 C-23.389999389648438,0.3179999887943268 -23.503000259399414,-0.42399999499320984 -23.756999969482422,-1.4049999713897705 C-23.913000106811523,-1.9989999532699585 -24.086999893188477,-2.6689999103546143 -24.000999450683594,-3.9660000801086426 C-23.88800048828125,-5.663000106811523 -23.945999145507812,-6.164000034332275 -24.003999710083008,-6.646999835968018 C-24.05299949645996,-7.065999984741211 -24.104000091552734,-7.5 -24,-9.156999588012695 C-23.881000518798828,-11.057999610900879 -24.202999114990234,-11.979000091552734 -24.930999755859375,-12.720000267028809 C-22.297000885009766,-17.858999252319336 -18.125999450683594,-22.08300018310547 -13.020999908447266,-24.775999069213867 C-13.199999809265137,-24.2549991607666 -13.295000076293945,-23.886999130249023 -13.279000282287598,-23.558000564575195 C-13.279000282287598,-23.558000564575195 -13.234000205993652,-22.604000091552734 -13.234000205993652,-22.604000091552734 C-13.234000205993652,-22.604000091552734 -12.279999732971191,-22.604000091552734 -12.279999732971191,-22.604000091552734 C-11.871000289916992,-22.604000091552734 -11.71399974822998,-22.74799919128418 -11.13599967956543,-23.281999588012695 C-8.465999603271484,-25.743999481201172 -7.263000011444092,-26.469999313354492 -6.732999801635742,-26.666000366210938 C-6.736999988555908,-26.54599952697754 -6.754000186920166,-26.38599967956543 -6.791999816894531,-26.172000885009766 C-6.985000133514404,-25.100000381469727 -8.230999946594238,-24.44300079345703 -9.548999786376953,-23.750999450683594 C-11.199000358581543,-22.881999969482422 -13.25100040435791,-21.804000854492188 -13.067000389099121,-19.46299934387207 C-13.067000389099121,-19.46299934387207 -13.017999649047852,-18.839000701904297 -13.017999649047852,-18.839000701904297 C-13.017999649047852,-18.839000701904297 -12.4350004196167,-18.610000610351562 -12.4350004196167,-18.610000610351562 C-11.449999809265137,-18.225000381469727 -10.482000350952148,-18.027999877929688 -9.559000015258789,-18.027999877929688 C-7.019000053405762,-18.027999877929688 -5.188000202178955,-19.429000854492188 -3.4179999828338623,-20.781999588012695 C-1.8209999799728394,-22.00200080871582 -0.3140000104904175,-23.15399932861328 1.6480000019073486,-23.15399932861328 C2.693000078201294,-23.15399932861328 4.165999889373779,-23.788000106811523 5.72599983215332,-24.45800018310547 C6.635000228881836,-24.849000930786133 7.860000133514404,-25.375 8.37399959564209,-25.43899917602539 C9.498000144958496,-24.542999267578125 9.038999557495117,-22.63800048828125 8.866999626159668,-22.05900001525879 C8.354000091552734,-20.350000381469727 7.201000213623047,-19.072999954223633 6.511000156402588,-19.072999954223633 C6.410999774932861,-19.072999954223633 6.250999927520752,-19.099000930786133 6.0269999504089355,-19.32699966430664 C4.380000114440918,-20.972999572753906 1.934999942779541,-20.819000244140625 0.19699999690055847,-19.006999969482422 C-1.1080000400543213,-17.64699935913086 -1.8389999866485596,-15.64900016784668 -1.7569999694824219,-13.668000221252441 C-1.7569999694824219,-13.668000221252441 -1.7239999771118164,-13.199999809265137 -1.7239999771118164,-13.199999809265137 C-1.847000002861023,-13.255000114440918 -1.9670000076293945,-13.310999870300293 -2.0869998931884766,-13.364999771118164 C-3.500999927520752,-14.008999824523926 -4.723999977111816,-14.564000129699707 -5.625999927520752,-14.564000129699707 C-6.409999847412109,-14.564000129699707 -6.796999931335449,-14.154999732971191 -6.960000038146973,-13.91100025177002 C-7.434999942779541,-13.194000244140625 -7.1519999504089355,-12.293000221252441 -6.855999946594238,-11.59000015258789 C-6.160999774932861,-9.928999900817871 -7.065999984741211,-8.409000396728516 -7.794000148773193,-7.186999797821045 C-8.317999839782715,-6.309000015258789 -8.770999908447266,-5.547999858856201 -8.338000297546387,-4.7870001792907715 C-8.069000244140625,-4.314000129699707 -7.563000202178955,-4.074999809265137 -6.833000183105469,-4.074999809265137 C-6.201000213623047,-4.074999809265137 -5.2270002365112305,-4.239999771118164 -3.671999931335449,-4.610000133514404 C-3.2760000228881836,-4.705999851226807 -2.941999912261963,-4.752999782562256 -2.6740000247955322,-4.752999782562256 C-2.128000020980835,-4.752999782562256 -2.046999931335449,-4.668000221252441 -1.7109999656677246,-3.740000009536743 C-1.4570000171661377,-3.0390000343322754 -1.1419999599456787,-2.1679999828338623 -0.2800000011920929,-1.503999948501587 C0.2549999952316284,-1.093999981880188 0.7200000286102295,-0.8999999761581421 1.1799999475479126,-0.8999999761581421 C2.369999885559082,-0.8999999761581421 2.7190001010894775,-2.0409998893737793 2.9070000648498535,-2.6519999504089355 C2.921999931335449,-2.7049999237060547 2.941999912261963,-2.7669999599456787 2.9600000381469727,-2.8269999027252197 C3.0429999828338623,-2.736999988555908 3.052999973297119,-2.618000030517578 3.0739998817443848,-2.385999917984009 C3.180000066757202,-1.093999981880188 3.984999895095825,-0.8989999890327454 4.454999923706055,-0.8989999890327454 C4.913000106811523,-0.8989999890327454 5.49399995803833,-1.0850000381469727 6.517000198364258,-1.559000015258789 C7.418000221252441,-1.9700000286102295 7.86299991607666,-2.055000066757202 8.119999885559082,-2.059999942779541 C8.1850004196167,-1.8969999551773071 8.246999740600586,-1.5329999923706055 8.288999557495117,-1.2790000438690186 C8.404000282287598,-0.6029999852180481 8.543999671936035,0.23800000548362732 9.053999900817871,1.0130000114440918 C10.640999794006348,3.4130001068115234 13.829000473022461,5.994999885559082 17.077999114990234,5.994999885559082 C19.023000717163086,5.994999885559082 20.66200065612793,5.047999858856201 21.81599998474121,3.256999969482422 C22.093000411987305,2.8259999752044678 22.19499969482422,2.193000078201294 22.364999771118164,1.0190000534057617 C22.482999801635742,0.20000000298023224 22.795000076293945,-1.9769999980926514 23.191999435424805,-2.250999927520752 C23.19700050354004,-2.250999927520752 23.704999923706055,-2.2070000171661377 24.900999069213867,-0.6439999938011169 C25.381000518798828,-0.014999999664723873 26.04400062561035,0.7080000042915344 26.89699935913086,0.7080000042915344 C26.89699935913086,0.7080000042915344 26.898000717163086,0.7080000042915344 26.898000717163086,0.7080000042915344 C27.3700008392334,0.7080000042915344 27.72599983215332,0.5389999747276306 27.9950008392334,0.2329999953508377 C27.892000198364258,12.619000434875488 19.711999893188477,23.110000610351562 8.473999977111816,26.68600082397461z"></path></g></g></g></svg>