<svg xmlns="http://www.w3.org/2000/svg" viewBox="0 0 800 800" width="800" height="800" preserveAspectRatio="xMidYMid meet" style="width: 100%; height: 100%; transform: translate3d(0px, 0px, 0px);"><defs><clipPath id="__lottie_element_668"><rect width="800" height="800" x="0" y="0"></rect></clipPath></defs><g clip-path="url(#__lottie_element_668)"><g transform="matrix(1,0,0,1,400,400)" opacity="1" style="display: block;"></g><g transform="matrix(-0.2621116638183594,0.539719820022583,-0.539719820022583,-0.2621116638183594,852.9169921875,79.52587127685547)" opacity="1" style="display: block;"><g opacity="1" transform="matrix(1,0,0,1,524.0599975585938,551.5479736328125)"><path stroke-linecap="butt" stroke-linejoin="miter" fill-opacity="0" stroke-miterlimit="10" stroke="rgb(0,0,0)" stroke-opacity="1" stroke-width="20" d=" M61.44599914550781,130.45199584960938 C61.44599914550781,130.45199584960938 0,258.4519958496094 0,258.4519958496094 C0,258.4519958496094 -61.44599914550781,130.45199584960938 -61.44599914550781,130.45199584960938 C-61.44599914550781,130.45199584960938 -61.44599914550781,-258.4519958496094 -61.44599914550781,-258.4519958496094 C-61.44599914550781,-258.4519958496094 61.44599914550781,-258.4519958496094 61.44599914550781,-258.4519958496094 C61.44599914550781,-258.4519958496094 61.44599914550781,130.45199584960938 61.44599914550781,130.45199584960938z"></path></g><g opacity="1" transform="matrix(1,0,0,1,524.0599975585938,336.3330078125)"><path fill="rgb(0,0,0)" fill-opacity="1" d=" M61.44599914550781,10.82699966430664 C61.44599914550781,10.82699966430664 -61.44599914550781,10.82699966430664 -61.44599914550781,10.82699966430664 C-61.44599914550781,10.82699966430664 -61.44599914550781,-10.82699966430664 -61.44599914550781,-10.82699966430664 C-61.44599914550781,-10.82699966430664 61.44599914550781,-10.82699966430664 61.44599914550781,-10.82699966430664 C61.44599914550781,-10.82699966430664 61.44599914550781,10.82699966430664 61.44599914550781,10.82699966430664z"></path></g><g opacity="1" transform="matrix(1,0,0,1,524.0599975585938,245.27699279785156)"><path stroke-linecap="square" stroke-linejoin="miter" fill-opacity="0" stroke-miterlimit="10" stroke="rgb(0,0,0)" stroke-opacity="1" stroke-width="20" d=" M-61.44599914550781,30.722999572753906 C-61.44599914550781,-3.2769999504089355 -33.93600082397461,-30.722999572753906 0,-30.722999572753906 C33.935001373291016,-30.722999572753906 61.44599914550781,-3.2769999504089355 61.44599914550781,30.722999572753906"></path></g><g opacity="1" transform="matrix(1,0,0,1,481.5090026855469,668.469970703125)"><path stroke-linecap="butt" stroke-linejoin="miter" fill-opacity="0" stroke-miterlimit="10" stroke="rgb(0,0,0)" stroke-opacity="1" stroke-width="10" d=" M18.615999221801758,-11.970000267028809 C18.615999221801758,1.2519999742507935 7.8979997634887695,11.970000267028809 -5.323999881744385,11.970000267028809 C-10.241000175476074,11.970000267028809 -14.814000129699707,10.487000465393066 -18.615999221801758,7.943999767303467"></path></g><g opacity="1" transform="matrix(1,0,0,1,568.2310180664062,668.469970703125)"><path stroke-linecap="butt" stroke-linejoin="miter" fill-opacity="0" stroke-miterlimit="10" stroke="rgb(0,0,0)" stroke-opacity="1" stroke-width="10" d=" M20.236000061035156,5.34499979019165 C15.939000129699707,9.449000358581543 10.116000175476074,11.970000267028809 3.7039999961853027,11.970000267028809 C-9.517999649047852,11.970000267028809 -20.236000061035156,1.2519999742507935 -20.236000061035156,-11.970000267028809"></path></g><g opacity="1" transform="matrix(1,0,0,1,524.0599975585938,773.8099975585938)"><path fill="rgb(0,0,0)" fill-opacity="1" d=" M-23.93899917602539,-6.583000183105469 C-23.93899917602539,-19.80500030517578 -13.222000122070312,-30.523000717163086 0,-30.523000717163086 C13.220999717712402,-30.523000717163086 23.940000534057617,-19.804000854492188 23.940000534057617,-6.583000183105469 C23.940000534057617,-6.583000183105469 0,30.523000717163086 0,30.523000717163086 C0,30.523000717163086 -23.93899917602539,-6.583000183105469 -23.93899917602539,-6.583000183105469z"></path></g><g opacity="1" transform="matrix(1,0,0,1,524.0599975585938,668.469970703125)"><path stroke-linecap="butt" stroke-linejoin="miter" fill-opacity="0" stroke-miterlimit="10" stroke="rgb(0,0,0)" stroke-opacity="1" stroke-width="10" d=" M23.940000534057617,-11.970000267028809 C23.940000534057617,1.2519999742507935 13.222000122070312,11.970000267028809 0,11.970000267028809 C-13.220999717712402,11.970000267028809 -23.940000534057617,1.2519999742507935 -23.940000534057617,-11.970000267028809"></path></g><g opacity="1" transform="matrix(1,0,0,1,500.06298828125,497.25)"><path stroke-linecap="butt" stroke-linejoin="miter" fill-opacity="0" stroke-miterlimit="10" stroke="rgb(0,0,0)" stroke-opacity="1" stroke-width="10" d=" M-0.06300000101327896,-159.25 C-0.06300000101327896,-159.25 0.06300000101327896,159.25 0.06300000101327896,159.25"></path></g><g opacity="1" transform="matrix(1,0,0,1,0,0)"><path stroke-linecap="butt" stroke-linejoin="miter" fill-opacity="0" stroke-miterlimit="10" stroke="rgb(0,0,0)" stroke-opacity="1" stroke-width="10" d=" M548,341 C548,341 548,657 548,657"></path></g></g><g transform="matrix(1,0,0,1,400,400)" opacity="1" style="display: block;"><g opacity="1" transform="matrix(1,0,0,1,0,0)"><path stroke-linecap="butt" stroke-linejoin="miter" fill-opacity="0" stroke-miterlimit="4" stroke="rgb(126,211,33)" stroke-opacity="1" stroke-width="14" d="M0 0"></path></g></g></g></svg>